<mxfile host="app.diagrams.net" agent="Mozilla/5.0 (Macintosh; Intel Mac OS X 10_15_7) AppleWebKit/537.36 (KHTML, like Gecko) Chrome/125.0.0.0 Safari/537.36" version="24.7.6">
  <diagram id="6a731a19-8d31-9384-78a2-239565b7b9f0" name="Page-1">
    <mxGraphModel dx="1812" dy="1174" grid="1" gridSize="10" guides="1" tooltips="1" connect="1" arrows="1" fold="1" page="1" pageScale="1" pageWidth="1169" pageHeight="827" background="none" math="0" shadow="0">
      <root>
        <mxCell id="0" />
        <mxCell id="1" parent="0" />
        <mxCell id="1749" value="Login" style="rounded=1;whiteSpace=wrap;html=1;shadow=0;labelBackgroundColor=none;strokeColor=none;strokeWidth=3;fillColor=#2F5B7C;fontFamily=Helvetica;fontSize=16;fontColor=#FFFFFF;align=center;fontStyle=1;spacing=5;arcSize=7;perimeterSpacing=2;" parent="1" vertex="1">
          <mxGeometry x="495" y="380.5" width="150" height="70" as="geometry" />
        </mxCell>
        <mxCell id="1761" value="CambioPassword" style="rounded=1;whiteSpace=wrap;html=1;shadow=0;labelBackgroundColor=none;strokeColor=none;strokeWidth=3;fillColor=#64bbe2;fontFamily=Helvetica;fontSize=14;fontColor=#FFFFFF;align=center;spacing=5;arcSize=7;perimeterSpacing=2;" parent="1" vertex="1">
          <mxGeometry x="695" y="650.5" width="150" height="60" as="geometry" />
        </mxCell>
        <mxCell id="1764" value="AdminHomepage" style="rounded=1;whiteSpace=wrap;html=1;shadow=0;labelBackgroundColor=none;strokeColor=none;strokeWidth=3;fillColor=#F08705;fontFamily=Helvetica;fontSize=14;fontColor=#FFFFFF;align=center;spacing=5;fontStyle=1;arcSize=7;perimeterSpacing=2;" parent="1" vertex="1">
          <mxGeometry x="495" y="200.5" width="150" height="60" as="geometry" />
        </mxCell>
        <mxCell id="1765" value="GestioneCategorie" style="rounded=1;whiteSpace=wrap;html=1;shadow=0;labelBackgroundColor=none;strokeColor=none;strokeWidth=3;fillColor=#f5af58;fontFamily=Helvetica;fontSize=14;fontColor=#FFFFFF;align=center;spacing=5;arcSize=7;perimeterSpacing=2;" parent="1" vertex="1">
          <mxGeometry x="695" y="110.5" width="150" height="60" as="geometry" />
        </mxCell>
        <mxCell id="1767" value="GestioneUtenti" style="rounded=1;whiteSpace=wrap;html=1;shadow=0;labelBackgroundColor=none;strokeColor=none;strokeWidth=3;fillColor=#f5af58;fontFamily=Helvetica;fontSize=14;fontColor=#FFFFFF;align=center;spacing=5;arcSize=7;perimeterSpacing=2;" parent="1" vertex="1">
          <mxGeometry x="495" y="50.5" width="150" height="60" as="geometry" />
        </mxCell>
        <mxCell id="1771" value="OrdinanteHomepage" style="rounded=1;whiteSpace=wrap;html=1;shadow=0;labelBackgroundColor=none;strokeColor=none;strokeWidth=3;fillColor=#12aab5;fontFamily=Helvetica;fontSize=14;fontColor=#FFFFFF;align=center;spacing=5;fontStyle=1;arcSize=7;perimeterSpacing=2;" parent="1" vertex="1">
          <mxGeometry x="800" y="385.4999999999999" width="150" height="60" as="geometry" />
        </mxCell>
        <mxCell id="1772" value="CambioPassword" style="rounded=1;whiteSpace=wrap;html=1;shadow=0;labelBackgroundColor=none;strokeColor=none;strokeWidth=3;fillColor=#61c6ce;fontFamily=Helvetica;fontSize=14;fontColor=#FFFFFF;align=center;spacing=5;fontStyle=0;arcSize=7;perimeterSpacing=2;" parent="1" vertex="1">
          <mxGeometry x="695" y="510.5" width="150" height="60" as="geometry" />
        </mxCell>
        <mxCell id="1774" value="RichiesteOrdinante" style="rounded=1;whiteSpace=wrap;html=1;shadow=0;labelBackgroundColor=none;strokeColor=none;strokeWidth=3;fillColor=#61c6ce;fontFamily=Helvetica;fontSize=14;fontColor=#FFFFFF;align=center;spacing=5;fontStyle=0;arcSize=7;perimeterSpacing=2;" parent="1" vertex="1">
          <mxGeometry x="1025" y="414" width="150" height="60" as="geometry" />
        </mxCell>
        <mxCell id="1776" value="ProposteOrdinante" style="rounded=1;whiteSpace=wrap;html=1;shadow=0;labelBackgroundColor=none;strokeColor=none;strokeWidth=3;fillColor=#61c6ce;fontFamily=Helvetica;fontSize=14;fontColor=#FFFFFF;align=center;spacing=5;fontStyle=0;arcSize=7;perimeterSpacing=2;" parent="1" vertex="1">
          <mxGeometry x="1025" y="324.5" width="155" height="60" as="geometry" />
        </mxCell>
        <mxCell id="IRvHJMBciiCPXwBHoD4_-1779" value="" style="endArrow=classic;startArrow=classic;html=1;rounded=0;exitX=0.5;exitY=0;exitDx=0;exitDy=0;entryX=0.5;entryY=1;entryDx=0;entryDy=0;" edge="1" parent="1" source="1760" target="1749">
          <mxGeometry width="50" height="50" relative="1" as="geometry">
            <mxPoint x="630" y="500" as="sourcePoint" />
            <mxPoint x="680" y="450" as="targetPoint" />
          </mxGeometry>
        </mxCell>
        <mxCell id="IRvHJMBciiCPXwBHoD4_-1780" value="" style="endArrow=classic;startArrow=classic;html=1;rounded=0;exitX=1;exitY=0.5;exitDx=0;exitDy=0;entryX=0;entryY=0.5;entryDx=0;entryDy=0;" edge="1" parent="1" source="1749" target="1771">
          <mxGeometry width="50" height="50" relative="1" as="geometry">
            <mxPoint x="580" y="579" as="sourcePoint" />
            <mxPoint x="580" y="463" as="targetPoint" />
          </mxGeometry>
        </mxCell>
        <mxCell id="IRvHJMBciiCPXwBHoD4_-1781" value="" style="endArrow=classic;startArrow=classic;html=1;rounded=0;exitX=0.5;exitY=0;exitDx=0;exitDy=0;" edge="1" parent="1" source="1749" target="1764">
          <mxGeometry width="50" height="50" relative="1" as="geometry">
            <mxPoint x="569.5" y="376.5" as="sourcePoint" />
            <mxPoint x="569.5" y="260.5" as="targetPoint" />
          </mxGeometry>
        </mxCell>
        <mxCell id="IRvHJMBciiCPXwBHoD4_-1782" value="" style="endArrow=classic;startArrow=classic;html=1;rounded=0;entryX=0.5;entryY=1;entryDx=0;entryDy=0;exitX=0.5;exitY=0;exitDx=0;exitDy=0;" edge="1" parent="1" source="1764" target="1767">
          <mxGeometry width="50" height="50" relative="1" as="geometry">
            <mxPoint x="569.66" y="191.5" as="sourcePoint" />
            <mxPoint x="569.89" y="120" as="targetPoint" />
          </mxGeometry>
        </mxCell>
        <mxCell id="IRvHJMBciiCPXwBHoD4_-1784" value="" style="endArrow=classic;startArrow=classic;html=1;rounded=0;entryX=0.038;entryY=0.942;entryDx=0;entryDy=0;exitX=0.96;exitY=0.064;exitDx=0;exitDy=0;entryPerimeter=0;exitPerimeter=0;" edge="1" parent="1" source="1764" target="1765">
          <mxGeometry width="50" height="50" relative="1" as="geometry">
            <mxPoint x="580" y="209" as="sourcePoint" />
            <mxPoint x="580" y="123" as="targetPoint" />
          </mxGeometry>
        </mxCell>
        <mxCell id="IRvHJMBciiCPXwBHoD4_-1789" value="" style="edgeStyle=orthogonalEdgeStyle;rounded=0;orthogonalLoop=1;jettySize=auto;html=1;" edge="1" parent="1" source="IRvHJMBciiCPXwBHoD4_-1785" target="IRvHJMBciiCPXwBHoD4_-1787">
          <mxGeometry relative="1" as="geometry" />
        </mxCell>
        <mxCell id="IRvHJMBciiCPXwBHoD4_-1785" value="AggiungiCategoria" style="rounded=1;whiteSpace=wrap;html=1;shadow=0;labelBackgroundColor=none;strokeColor=none;strokeWidth=3;fillColor=#f5af58;fontFamily=Helvetica;fontSize=14;fontColor=#FFFFFF;align=center;spacing=5;arcSize=7;perimeterSpacing=2;" vertex="1" parent="1">
          <mxGeometry x="890" y="110.5" width="150" height="60" as="geometry" />
        </mxCell>
        <mxCell id="IRvHJMBciiCPXwBHoD4_-1787" value="CategoriaController" style="rounded=1;whiteSpace=wrap;html=1;shadow=0;labelBackgroundColor=none;strokeColor=none;strokeWidth=3;fillColor=#f5af58;fontFamily=Helvetica;fontSize=14;fontColor=#FFFFFF;align=center;spacing=5;arcSize=7;perimeterSpacing=2;" vertex="1" parent="1">
          <mxGeometry x="890" y="200.5" width="150" height="60" as="geometry" />
        </mxCell>
        <mxCell id="IRvHJMBciiCPXwBHoD4_-1788" value="" style="endArrow=classic;startArrow=classic;html=1;rounded=0;entryX=0;entryY=0.5;entryDx=0;entryDy=0;exitX=1;exitY=0.5;exitDx=0;exitDy=0;" edge="1" parent="1" source="1765" target="IRvHJMBciiCPXwBHoD4_-1785">
          <mxGeometry width="50" height="50" relative="1" as="geometry">
            <mxPoint x="651" y="213" as="sourcePoint" />
            <mxPoint x="709" y="179" as="targetPoint" />
          </mxGeometry>
        </mxCell>
        <mxCell id="IRvHJMBciiCPXwBHoD4_-1790" value="" style="endArrow=classic;startArrow=classic;html=1;rounded=0;entryX=0;entryY=0.5;entryDx=0;entryDy=0;exitX=0.5;exitY=1;exitDx=0;exitDy=0;" edge="1" parent="1" source="1765" target="IRvHJMBciiCPXwBHoD4_-1787">
          <mxGeometry width="50" height="50" relative="1" as="geometry">
            <mxPoint x="661" y="223" as="sourcePoint" />
            <mxPoint x="719" y="189" as="targetPoint" />
          </mxGeometry>
        </mxCell>
        <mxCell id="IRvHJMBciiCPXwBHoD4_-1791" value="ModificaCategoria" style="rounded=1;whiteSpace=wrap;html=1;shadow=0;labelBackgroundColor=none;strokeColor=none;strokeWidth=3;fillColor=#f5af58;fontFamily=Helvetica;fontSize=14;fontColor=#FFFFFF;align=center;spacing=5;arcSize=7;perimeterSpacing=2;" vertex="1" parent="1">
          <mxGeometry x="1120" y="200.5" width="150" height="60" as="geometry" />
        </mxCell>
        <mxCell id="IRvHJMBciiCPXwBHoD4_-1792" value="GestisciCaratteristiche" style="rounded=1;whiteSpace=wrap;html=1;shadow=0;labelBackgroundColor=none;strokeColor=none;strokeWidth=3;fillColor=#f5af58;fontFamily=Helvetica;fontSize=14;fontColor=#FFFFFF;align=center;spacing=5;arcSize=7;perimeterSpacing=2;" vertex="1" parent="1">
          <mxGeometry x="1120" y="110.5" width="150" height="60" as="geometry" />
        </mxCell>
        <mxCell id="IRvHJMBciiCPXwBHoD4_-1793" value="" style="endArrow=classic;startArrow=classic;html=1;rounded=0;entryX=1;entryY=0.25;entryDx=0;entryDy=0;exitX=0;exitY=0.5;exitDx=0;exitDy=0;" edge="1" parent="1" source="IRvHJMBciiCPXwBHoD4_-1792" target="IRvHJMBciiCPXwBHoD4_-1787">
          <mxGeometry width="50" height="50" relative="1" as="geometry">
            <mxPoint x="780" y="183" as="sourcePoint" />
            <mxPoint x="898" y="241" as="targetPoint" />
          </mxGeometry>
        </mxCell>
        <mxCell id="IRvHJMBciiCPXwBHoD4_-1794" value="" style="endArrow=classic;startArrow=classic;html=1;rounded=0;entryX=0;entryY=0.75;entryDx=0;entryDy=0;exitX=1;exitY=0.5;exitDx=0;exitDy=0;" edge="1" parent="1" source="IRvHJMBciiCPXwBHoD4_-1787" target="IRvHJMBciiCPXwBHoD4_-1791">
          <mxGeometry width="50" height="50" relative="1" as="geometry">
            <mxPoint x="790" y="193" as="sourcePoint" />
            <mxPoint x="908" y="251" as="targetPoint" />
          </mxGeometry>
        </mxCell>
        <mxCell id="IRvHJMBciiCPXwBHoD4_-1796" value="" style="endArrow=classic;html=1;rounded=0;exitX=0;exitY=0.75;exitDx=0;exitDy=0;entryX=1;entryY=0.75;entryDx=0;entryDy=0;" edge="1" parent="1" source="IRvHJMBciiCPXwBHoD4_-1787" target="1764">
          <mxGeometry width="50" height="50" relative="1" as="geometry">
            <mxPoint x="790" y="310" as="sourcePoint" />
            <mxPoint x="840" y="260" as="targetPoint" />
          </mxGeometry>
        </mxCell>
        <mxCell id="IRvHJMBciiCPXwBHoD4_-1797" value="" style="endArrow=classic;startArrow=classic;html=1;rounded=0;entryX=0.25;entryY=1;entryDx=0;entryDy=0;exitX=0.5;exitY=0;exitDx=0;exitDy=0;" edge="1" parent="1" source="1772" target="1771">
          <mxGeometry width="50" height="50" relative="1" as="geometry">
            <mxPoint x="820" y="510" as="sourcePoint" />
            <mxPoint x="870" y="460" as="targetPoint" />
          </mxGeometry>
        </mxCell>
        <mxCell id="IRvHJMBciiCPXwBHoD4_-1799" value="" style="endArrow=classic;startArrow=classic;html=1;rounded=0;entryX=0;entryY=0.5;entryDx=0;entryDy=0;exitX=1;exitY=0.25;exitDx=0;exitDy=0;" edge="1" parent="1" source="1771" target="1776">
          <mxGeometry width="50" height="50" relative="1" as="geometry">
            <mxPoint x="970" y="400" as="sourcePoint" />
            <mxPoint x="1020" y="350" as="targetPoint" />
          </mxGeometry>
        </mxCell>
        <mxCell id="IRvHJMBciiCPXwBHoD4_-1800" value="" style="endArrow=classic;startArrow=classic;html=1;rounded=0;exitX=0.978;exitY=0.633;exitDx=0;exitDy=0;exitPerimeter=0;entryX=0;entryY=0.5;entryDx=0;entryDy=0;" edge="1" parent="1" source="1771" target="1774">
          <mxGeometry width="50" height="50" relative="1" as="geometry">
            <mxPoint x="950" y="530" as="sourcePoint" />
            <mxPoint x="1000" y="480" as="targetPoint" />
          </mxGeometry>
        </mxCell>
        <mxCell id="IRvHJMBciiCPXwBHoD4_-1801" value="" style="endArrow=classic;startArrow=classic;html=1;rounded=0;exitX=1;exitY=1;exitDx=0;exitDy=0;entryX=0;entryY=0;entryDx=0;entryDy=0;" edge="1" parent="1" source="1760" target="1761">
          <mxGeometry width="50" height="50" relative="1" as="geometry">
            <mxPoint x="660" y="650" as="sourcePoint" />
            <mxPoint x="710" y="600" as="targetPoint" />
          </mxGeometry>
        </mxCell>
        <mxCell id="IRvHJMBciiCPXwBHoD4_-1818" value="" style="edgeStyle=orthogonalEdgeStyle;rounded=0;orthogonalLoop=1;jettySize=auto;html=1;" edge="1" parent="1" source="IRvHJMBciiCPXwBHoD4_-1802" target="IRvHJMBciiCPXwBHoD4_-1817">
          <mxGeometry relative="1" as="geometry" />
        </mxCell>
        <mxCell id="IRvHJMBciiCPXwBHoD4_-1802" value="NuovaRichiesta" style="rounded=1;whiteSpace=wrap;html=1;shadow=0;labelBackgroundColor=none;strokeColor=none;strokeWidth=3;fillColor=#61c6ce;fontFamily=Helvetica;fontSize=14;fontColor=#FFFFFF;align=center;spacing=5;fontStyle=0;arcSize=7;perimeterSpacing=2;" vertex="1" parent="1">
          <mxGeometry x="1025" y="520" width="150" height="60" as="geometry" />
        </mxCell>
        <mxCell id="IRvHJMBciiCPXwBHoD4_-1803" value="" style="endArrow=classic;startArrow=classic;html=1;rounded=0;exitX=0.913;exitY=0.964;exitDx=0;exitDy=0;entryX=0;entryY=0.5;entryDx=0;entryDy=0;exitPerimeter=0;" edge="1" parent="1" source="1771" target="IRvHJMBciiCPXwBHoD4_-1802">
          <mxGeometry width="50" height="50" relative="1" as="geometry">
            <mxPoint x="980" y="730" as="sourcePoint" />
            <mxPoint x="1030" y="680" as="targetPoint" />
          </mxGeometry>
        </mxCell>
        <mxCell id="IRvHJMBciiCPXwBHoD4_-1804" value="Ordini" style="rounded=1;whiteSpace=wrap;html=1;shadow=0;labelBackgroundColor=none;strokeColor=none;strokeWidth=3;fillColor=#61c6ce;fontFamily=Helvetica;fontSize=14;fontColor=#FFFFFF;align=center;spacing=5;fontStyle=0;arcSize=7;perimeterSpacing=2;" vertex="1" parent="1">
          <mxGeometry x="1025" y="620" width="150" height="60" as="geometry" />
        </mxCell>
        <mxCell id="IRvHJMBciiCPXwBHoD4_-1805" value="" style="endArrow=classic;startArrow=classic;html=1;rounded=0;entryX=0;entryY=0.5;entryDx=0;entryDy=0;exitX=0.581;exitY=0.982;exitDx=0;exitDy=0;exitPerimeter=0;" edge="1" parent="1" source="1771" target="IRvHJMBciiCPXwBHoD4_-1804">
          <mxGeometry width="50" height="50" relative="1" as="geometry">
            <mxPoint x="790" y="470" as="sourcePoint" />
            <mxPoint x="840" y="420" as="targetPoint" />
          </mxGeometry>
        </mxCell>
        <mxCell id="IRvHJMBciiCPXwBHoD4_-1806" value="" style="endArrow=classic;startArrow=classic;html=1;rounded=0;exitX=1;exitY=0.25;exitDx=0;exitDy=0;entryX=0;entryY=0.5;entryDx=0;entryDy=0;" edge="1" parent="1" source="1776" target="IRvHJMBciiCPXwBHoD4_-1807">
          <mxGeometry width="50" height="50" relative="1" as="geometry">
            <mxPoint x="1200" y="350" as="sourcePoint" />
            <mxPoint x="1250" y="310" as="targetPoint" />
          </mxGeometry>
        </mxCell>
        <mxCell id="IRvHJMBciiCPXwBHoD4_-1808" value="" style="edgeStyle=orthogonalEdgeStyle;rounded=0;orthogonalLoop=1;jettySize=auto;html=1;entryX=0.5;entryY=0;entryDx=0;entryDy=0;exitX=0;exitY=0.25;exitDx=0;exitDy=0;" edge="1" parent="1" source="IRvHJMBciiCPXwBHoD4_-1807" target="1771">
          <mxGeometry relative="1" as="geometry" />
        </mxCell>
        <mxCell id="IRvHJMBciiCPXwBHoD4_-1807" value="DettaglioPropostaOrd" style="rounded=1;whiteSpace=wrap;html=1;shadow=0;labelBackgroundColor=none;strokeColor=none;strokeWidth=3;fillColor=#61c6ce;fontFamily=Helvetica;fontSize=14;fontColor=#FFFFFF;align=center;spacing=5;fontStyle=0;arcSize=7;perimeterSpacing=2;" vertex="1" parent="1">
          <mxGeometry x="1250" y="280" width="150" height="60" as="geometry" />
        </mxCell>
        <mxCell id="IRvHJMBciiCPXwBHoD4_-1809" value="DettaglioRichiestaord" style="whiteSpace=wrap;html=1;fontSize=14;fillColor=#61c6ce;strokeColor=none;fontColor=#FFFFFF;rounded=1;shadow=0;labelBackgroundColor=none;strokeWidth=3;spacing=5;fontStyle=0;arcSize=7;" vertex="1" parent="1">
          <mxGeometry x="1247.5" y="414" width="155" height="60" as="geometry" />
        </mxCell>
        <mxCell id="IRvHJMBciiCPXwBHoD4_-1811" value="MotivaRifiuto" style="whiteSpace=wrap;html=1;fontSize=14;fillColor=#61c6ce;strokeColor=none;fontColor=#FFFFFF;rounded=1;shadow=0;labelBackgroundColor=none;strokeWidth=3;spacing=5;fontStyle=0;arcSize=7;" vertex="1" parent="1">
          <mxGeometry x="1450" y="280" width="155" height="60" as="geometry" />
        </mxCell>
        <mxCell id="IRvHJMBciiCPXwBHoD4_-1812" value="" style="endArrow=classic;startArrow=classic;html=1;rounded=0;entryX=0;entryY=0.5;entryDx=0;entryDy=0;exitX=1;exitY=0.5;exitDx=0;exitDy=0;" edge="1" parent="1" source="IRvHJMBciiCPXwBHoD4_-1807" target="IRvHJMBciiCPXwBHoD4_-1811">
          <mxGeometry width="50" height="50" relative="1" as="geometry">
            <mxPoint x="1050" y="340" as="sourcePoint" />
            <mxPoint x="1100" y="290" as="targetPoint" />
          </mxGeometry>
        </mxCell>
        <mxCell id="IRvHJMBciiCPXwBHoD4_-1813" value="" style="endArrow=classic;startArrow=classic;html=1;rounded=0;entryX=0.5;entryY=1;entryDx=0;entryDy=0;exitX=0.5;exitY=0;exitDx=0;exitDy=0;" edge="1" parent="1" source="IRvHJMBciiCPXwBHoD4_-1809" target="IRvHJMBciiCPXwBHoD4_-1807">
          <mxGeometry width="50" height="50" relative="1" as="geometry">
            <mxPoint x="1300" y="410" as="sourcePoint" />
            <mxPoint x="1350" y="360" as="targetPoint" />
          </mxGeometry>
        </mxCell>
        <mxCell id="IRvHJMBciiCPXwBHoD4_-1814" value="" style="endArrow=classic;startArrow=classic;html=1;rounded=0;exitX=1;exitY=0.5;exitDx=0;exitDy=0;entryX=0;entryY=0.5;entryDx=0;entryDy=0;" edge="1" parent="1" source="1774" target="IRvHJMBciiCPXwBHoD4_-1809">
          <mxGeometry width="50" height="50" relative="1" as="geometry">
            <mxPoint x="1230" y="570" as="sourcePoint" />
            <mxPoint x="1280" y="520" as="targetPoint" />
            <Array as="points" />
          </mxGeometry>
        </mxCell>
        <mxCell id="IRvHJMBciiCPXwBHoD4_-1816" value="" style="endArrow=classic;html=1;rounded=0;exitX=0;exitY=0.25;exitDx=0;exitDy=0;entryX=1;entryY=0.25;entryDx=0;entryDy=0;" edge="1" parent="1" source="IRvHJMBciiCPXwBHoD4_-1809" target="1771">
          <mxGeometry width="50" height="50" relative="1" as="geometry">
            <mxPoint x="1210" y="410" as="sourcePoint" />
            <mxPoint x="960" y="400" as="targetPoint" />
            <Array as="points">
              <mxPoint x="1210" y="400" />
            </Array>
          </mxGeometry>
        </mxCell>
        <mxCell id="IRvHJMBciiCPXwBHoD4_-1820" value="" style="edgeStyle=orthogonalEdgeStyle;rounded=0;orthogonalLoop=1;jettySize=auto;html=1;entryX=0.848;entryY=0.961;entryDx=0;entryDy=0;entryPerimeter=0;" edge="1" parent="1" source="IRvHJMBciiCPXwBHoD4_-1817" target="1771">
          <mxGeometry relative="1" as="geometry">
            <Array as="points">
              <mxPoint x="1325" y="500" />
              <mxPoint x="929" y="500" />
            </Array>
          </mxGeometry>
        </mxCell>
        <mxCell id="IRvHJMBciiCPXwBHoD4_-1817" value="NuovaRichiestaCaratteristiche" style="whiteSpace=wrap;html=1;fontSize=14;fillColor=#61c6ce;strokeColor=none;fontColor=#FFFFFF;rounded=1;shadow=0;labelBackgroundColor=none;strokeWidth=3;spacing=5;fontStyle=0;arcSize=7;" vertex="1" parent="1">
          <mxGeometry x="1225" y="520" width="200" height="60" as="geometry" />
        </mxCell>
        <mxCell id="IRvHJMBciiCPXwBHoD4_-1819" value="" style="endArrow=classic;html=1;rounded=0;entryX=0.911;entryY=0.891;entryDx=0;entryDy=0;exitX=0.172;exitY=0.017;exitDx=0;exitDy=0;exitPerimeter=0;entryPerimeter=0;" edge="1" parent="1" source="IRvHJMBciiCPXwBHoD4_-1817" target="1774">
          <mxGeometry width="50" height="50" relative="1" as="geometry">
            <mxPoint x="1170" y="530" as="sourcePoint" />
            <mxPoint x="1220" y="480" as="targetPoint" />
          </mxGeometry>
        </mxCell>
        <mxCell id="IRvHJMBciiCPXwBHoD4_-1825" value="" style="edgeStyle=orthogonalEdgeStyle;rounded=0;orthogonalLoop=1;jettySize=auto;html=1;exitX=1;exitY=0.5;exitDx=0;exitDy=0;entryX=0.75;entryY=1;entryDx=0;entryDy=0;" edge="1" parent="1" source="IRvHJMBciiCPXwBHoD4_-1821" target="IRvHJMBciiCPXwBHoD4_-1807">
          <mxGeometry relative="1" as="geometry">
            <Array as="points">
              <mxPoint x="1440" y="650" />
              <mxPoint x="1440" y="400" />
              <mxPoint x="1363" y="400" />
            </Array>
          </mxGeometry>
        </mxCell>
        <mxCell id="IRvHJMBciiCPXwBHoD4_-1821" value="DettaglioOrdineOrd" style="rounded=1;whiteSpace=wrap;html=1;shadow=0;labelBackgroundColor=none;strokeColor=none;strokeWidth=3;fillColor=#61c6ce;fontFamily=Helvetica;fontSize=14;fontColor=#FFFFFF;align=center;spacing=5;fontStyle=0;arcSize=7;perimeterSpacing=2;" vertex="1" parent="1">
          <mxGeometry x="1240" y="620" width="150" height="60" as="geometry" />
        </mxCell>
        <mxCell id="IRvHJMBciiCPXwBHoD4_-1822" value="" style="endArrow=classic;startArrow=classic;html=1;rounded=0;exitX=1;exitY=0.5;exitDx=0;exitDy=0;entryX=0;entryY=0.5;entryDx=0;entryDy=0;" edge="1" parent="1" source="IRvHJMBciiCPXwBHoD4_-1804" target="IRvHJMBciiCPXwBHoD4_-1821">
          <mxGeometry width="50" height="50" relative="1" as="geometry">
            <mxPoint x="1190" y="680" as="sourcePoint" />
            <mxPoint x="1240" y="630" as="targetPoint" />
          </mxGeometry>
        </mxCell>
        <mxCell id="IRvHJMBciiCPXwBHoD4_-1824" value="" style="endArrow=classic;html=1;rounded=0;entryX=0.5;entryY=1;entryDx=0;entryDy=0;" edge="1" parent="1" target="1771">
          <mxGeometry width="50" height="50" relative="1" as="geometry">
            <mxPoint x="1315" y="680" as="sourcePoint" />
            <mxPoint x="1020" y="740" as="targetPoint" />
            <Array as="points">
              <mxPoint x="1315" y="700" />
              <mxPoint x="880" y="700" />
            </Array>
          </mxGeometry>
        </mxCell>
        <mxCell id="IRvHJMBciiCPXwBHoD4_-1826" value="RifiutoOrdine" style="rounded=1;whiteSpace=wrap;html=1;shadow=0;labelBackgroundColor=none;strokeColor=none;strokeWidth=3;fillColor=#61c6ce;fontFamily=Helvetica;fontSize=14;fontColor=#FFFFFF;align=center;spacing=5;fontStyle=0;arcSize=7;perimeterSpacing=2;" vertex="1" parent="1">
          <mxGeometry x="1455" y="620" width="150" height="60" as="geometry" />
        </mxCell>
        <mxCell id="IRvHJMBciiCPXwBHoD4_-1827" value="" style="endArrow=classic;startArrow=classic;html=1;rounded=0;exitX=1;exitY=0.75;exitDx=0;exitDy=0;entryX=0;entryY=0.75;entryDx=0;entryDy=0;" edge="1" parent="1" source="IRvHJMBciiCPXwBHoD4_-1821" target="IRvHJMBciiCPXwBHoD4_-1826">
          <mxGeometry width="50" height="50" relative="1" as="geometry">
            <mxPoint x="1440" y="760" as="sourcePoint" />
            <mxPoint x="1490" y="710" as="targetPoint" />
          </mxGeometry>
        </mxCell>
        <mxCell id="IRvHJMBciiCPXwBHoD4_-1828" value="RichiesteTecnico" style="rounded=1;whiteSpace=wrap;html=1;shadow=0;labelBackgroundColor=none;strokeColor=none;strokeWidth=3;fillColor=#64bbe2;fontFamily=Helvetica;fontSize=14;fontColor=#FFFFFF;align=center;spacing=5;arcSize=7;perimeterSpacing=2;" vertex="1" parent="1">
          <mxGeometry x="695" y="730" width="150" height="60" as="geometry" />
        </mxCell>
        <mxCell id="IRvHJMBciiCPXwBHoD4_-1829" value="" style="endArrow=classic;startArrow=classic;html=1;rounded=0;entryX=0.838;entryY=0.966;entryDx=0;entryDy=0;entryPerimeter=0;exitX=0;exitY=0.25;exitDx=0;exitDy=0;" edge="1" parent="1" source="IRvHJMBciiCPXwBHoD4_-1828" target="1760">
          <mxGeometry width="50" height="50" relative="1" as="geometry">
            <mxPoint x="560" y="710" as="sourcePoint" />
            <mxPoint x="610" y="660" as="targetPoint" />
          </mxGeometry>
        </mxCell>
        <mxCell id="IRvHJMBciiCPXwBHoD4_-1830" value="ProposteTecnico" style="rounded=1;whiteSpace=wrap;html=1;shadow=0;labelBackgroundColor=none;strokeColor=none;strokeWidth=3;fillColor=#64bbe2;fontFamily=Helvetica;fontSize=14;fontColor=#FFFFFF;align=center;spacing=5;arcSize=7;perimeterSpacing=2;" vertex="1" parent="1">
          <mxGeometry x="695" y="870" width="150" height="60" as="geometry" />
        </mxCell>
        <mxCell id="IRvHJMBciiCPXwBHoD4_-1831" value="" style="endArrow=classic;startArrow=classic;html=1;rounded=0;entryX=0.582;entryY=0.975;entryDx=0;entryDy=0;entryPerimeter=0;exitX=0;exitY=0.25;exitDx=0;exitDy=0;" edge="1" parent="1" source="IRvHJMBciiCPXwBHoD4_-1830" target="1760">
          <mxGeometry width="50" height="50" relative="1" as="geometry">
            <mxPoint x="550" y="840" as="sourcePoint" />
            <mxPoint x="600" y="790" as="targetPoint" />
          </mxGeometry>
        </mxCell>
        <mxCell id="IRvHJMBciiCPXwBHoD4_-1832" value="StoricoTecnico" style="rounded=1;whiteSpace=wrap;html=1;shadow=0;labelBackgroundColor=none;strokeColor=none;strokeWidth=3;fillColor=#64bbe2;fontFamily=Helvetica;fontSize=14;fontColor=#FFFFFF;align=center;spacing=5;arcSize=7;perimeterSpacing=2;" vertex="1" parent="1">
          <mxGeometry x="695" y="960" width="150" height="60" as="geometry" />
        </mxCell>
        <mxCell id="IRvHJMBciiCPXwBHoD4_-1833" value="NotificheTecnico" style="rounded=1;whiteSpace=wrap;html=1;shadow=0;labelBackgroundColor=none;strokeColor=none;strokeWidth=3;fillColor=#64bbe2;fontFamily=Helvetica;fontSize=14;fontColor=#FFFFFF;align=center;spacing=5;arcSize=7;perimeterSpacing=2;" vertex="1" parent="1">
          <mxGeometry x="460" y="810" width="150" height="60" as="geometry" />
        </mxCell>
        <mxCell id="IRvHJMBciiCPXwBHoD4_-1834" value="" style="endArrow=classic;startArrow=classic;html=1;rounded=0;exitX=0.442;exitY=0.078;exitDx=0;exitDy=0;exitPerimeter=0;" edge="1" parent="1" source="1760">
          <mxGeometry width="50" height="50" relative="1" as="geometry">
            <mxPoint x="520" y="750" as="sourcePoint" />
            <mxPoint x="526" y="620" as="targetPoint" />
          </mxGeometry>
        </mxCell>
        <mxCell id="IRvHJMBciiCPXwBHoD4_-1835" value="" style="endArrow=classic;startArrow=classic;html=1;rounded=0;exitX=0.5;exitY=0;exitDx=0;exitDy=0;entryX=0.25;entryY=1;entryDx=0;entryDy=0;" edge="1" parent="1" source="IRvHJMBciiCPXwBHoD4_-1833" target="1760">
          <mxGeometry width="50" height="50" relative="1" as="geometry">
            <mxPoint x="526" y="813" as="sourcePoint" />
            <mxPoint x="526" y="620" as="targetPoint" />
          </mxGeometry>
        </mxCell>
        <mxCell id="1760" value="TecnicoHomepage" style="rounded=1;whiteSpace=wrap;html=1;shadow=0;labelBackgroundColor=none;strokeColor=none;strokeWidth=3;fillColor=#1699d3;fontFamily=Helvetica;fontSize=14;fontColor=#FFFFFF;align=center;spacing=5;fontStyle=1;arcSize=7;perimeterSpacing=2;" parent="1" vertex="1">
          <mxGeometry x="495" y="560" width="150" height="60" as="geometry" />
        </mxCell>
        <mxCell id="IRvHJMBciiCPXwBHoD4_-1836" value="" style="endArrow=classic;startArrow=classic;html=1;rounded=0;exitX=0.5;exitY=1;exitDx=0;exitDy=0;entryX=0;entryY=0.5;entryDx=0;entryDy=0;" edge="1" parent="1" source="1760" target="IRvHJMBciiCPXwBHoD4_-1832">
          <mxGeometry width="50" height="50" relative="1" as="geometry">
            <mxPoint x="610" y="960" as="sourcePoint" />
            <mxPoint x="660" y="910" as="targetPoint" />
          </mxGeometry>
        </mxCell>
        <mxCell id="IRvHJMBciiCPXwBHoD4_-1837" value="RichiestaInAttesa" style="rounded=1;whiteSpace=wrap;html=1;shadow=0;labelBackgroundColor=none;strokeColor=none;strokeWidth=3;fillColor=#64bbe2;fontFamily=Helvetica;fontSize=14;fontColor=#FFFFFF;align=center;spacing=5;arcSize=7;perimeterSpacing=2;" vertex="1" parent="1">
          <mxGeometry x="460" y="920" width="150" height="60" as="geometry" />
        </mxCell>
        <mxCell id="IRvHJMBciiCPXwBHoD4_-1838" value="" style="endArrow=classic;startArrow=classic;html=1;rounded=0;entryX=0.5;entryY=1;entryDx=0;entryDy=0;exitX=0.5;exitY=0;exitDx=0;exitDy=0;" edge="1" parent="1" source="IRvHJMBciiCPXwBHoD4_-1837" target="IRvHJMBciiCPXwBHoD4_-1833">
          <mxGeometry width="50" height="50" relative="1" as="geometry">
            <mxPoint x="495" y="920" as="sourcePoint" />
            <mxPoint x="545" y="870" as="targetPoint" />
          </mxGeometry>
        </mxCell>
        <mxCell id="IRvHJMBciiCPXwBHoD4_-1839" value="" style="endArrow=classic;html=1;rounded=0;exitX=0;exitY=0.5;exitDx=0;exitDy=0;entryX=0.026;entryY=0.622;entryDx=0;entryDy=0;entryPerimeter=0;" edge="1" parent="1" source="IRvHJMBciiCPXwBHoD4_-1837" target="1760">
          <mxGeometry width="50" height="50" relative="1" as="geometry">
            <mxPoint x="730" y="780" as="sourcePoint" />
            <mxPoint x="490" y="670" as="targetPoint" />
            <Array as="points">
              <mxPoint x="420" y="950" />
              <mxPoint x="420" y="600" />
            </Array>
          </mxGeometry>
        </mxCell>
        <mxCell id="IRvHJMBciiCPXwBHoD4_-1840" value="DetailRichiestaTecnico" style="rounded=1;whiteSpace=wrap;html=1;shadow=0;labelBackgroundColor=none;strokeColor=none;strokeWidth=3;fillColor=#64bbe2;fontFamily=Helvetica;fontSize=14;fontColor=#FFFFFF;align=center;spacing=5;arcSize=7;perimeterSpacing=2;" vertex="1" parent="1">
          <mxGeometry x="890" y="730" width="150" height="60" as="geometry" />
        </mxCell>
        <mxCell id="IRvHJMBciiCPXwBHoD4_-1841" value="" style="endArrow=classic;startArrow=classic;html=1;rounded=0;exitX=1;exitY=0.5;exitDx=0;exitDy=0;entryX=0;entryY=0.5;entryDx=0;entryDy=0;" edge="1" parent="1" source="IRvHJMBciiCPXwBHoD4_-1828" target="IRvHJMBciiCPXwBHoD4_-1840">
          <mxGeometry width="50" height="50" relative="1" as="geometry">
            <mxPoint x="860" y="820" as="sourcePoint" />
            <mxPoint x="910" y="770" as="targetPoint" />
          </mxGeometry>
        </mxCell>
        <mxCell id="IRvHJMBciiCPXwBHoD4_-1842" value="" style="endArrow=classic;html=1;rounded=0;exitX=0.206;exitY=0.972;exitDx=0;exitDy=0;exitPerimeter=0;entryX=0.707;entryY=0.972;entryDx=0;entryDy=0;entryPerimeter=0;" edge="1" parent="1" source="IRvHJMBciiCPXwBHoD4_-1840" target="1760">
          <mxGeometry width="50" height="50" relative="1" as="geometry">
            <mxPoint x="930" y="870" as="sourcePoint" />
            <mxPoint x="980" y="820" as="targetPoint" />
            <Array as="points">
              <mxPoint x="920" y="810" />
              <mxPoint x="690" y="810" />
            </Array>
          </mxGeometry>
        </mxCell>
        <mxCell id="IRvHJMBciiCPXwBHoD4_-1843" value="InvioProposta" style="rounded=1;whiteSpace=wrap;html=1;shadow=0;labelBackgroundColor=none;strokeColor=none;strokeWidth=3;fillColor=#64bbe2;fontFamily=Helvetica;fontSize=14;fontColor=#FFFFFF;align=center;spacing=5;arcSize=7;perimeterSpacing=2;" vertex="1" parent="1">
          <mxGeometry x="1075" y="730" width="150" height="60" as="geometry" />
        </mxCell>
        <mxCell id="IRvHJMBciiCPXwBHoD4_-1844" value="" style="endArrow=classic;startArrow=classic;html=1;rounded=0;exitX=1;exitY=0.5;exitDx=0;exitDy=0;entryX=0;entryY=0.5;entryDx=0;entryDy=0;" edge="1" parent="1" source="IRvHJMBciiCPXwBHoD4_-1840" target="IRvHJMBciiCPXwBHoD4_-1843">
          <mxGeometry width="50" height="50" relative="1" as="geometry">
            <mxPoint x="1060" y="900" as="sourcePoint" />
            <mxPoint x="1110" y="850" as="targetPoint" />
          </mxGeometry>
        </mxCell>
        <mxCell id="IRvHJMBciiCPXwBHoD4_-1847" value="" style="endArrow=classic;html=1;rounded=0;exitX=0.428;exitY=1.014;exitDx=0;exitDy=0;exitPerimeter=0;entryX=0.5;entryY=1;entryDx=0;entryDy=0;" edge="1" parent="1" source="IRvHJMBciiCPXwBHoD4_-1843" target="IRvHJMBciiCPXwBHoD4_-1828">
          <mxGeometry width="50" height="50" relative="1" as="geometry">
            <mxPoint x="1090" y="910" as="sourcePoint" />
            <mxPoint x="1140" y="860" as="targetPoint" />
            <Array as="points">
              <mxPoint x="1140" y="820" />
              <mxPoint x="770" y="820" />
            </Array>
          </mxGeometry>
        </mxCell>
        <mxCell id="IRvHJMBciiCPXwBHoD4_-1851" value="" style="edgeStyle=orthogonalEdgeStyle;rounded=0;orthogonalLoop=1;jettySize=auto;html=1;" edge="1" parent="1" source="IRvHJMBciiCPXwBHoD4_-1848" target="IRvHJMBciiCPXwBHoD4_-1840">
          <mxGeometry relative="1" as="geometry" />
        </mxCell>
        <mxCell id="IRvHJMBciiCPXwBHoD4_-1848" value="DetailPropostaTecnico" style="rounded=1;whiteSpace=wrap;html=1;shadow=0;labelBackgroundColor=none;strokeColor=none;strokeWidth=3;fillColor=#64bbe2;fontFamily=Helvetica;fontSize=14;fontColor=#FFFFFF;align=center;spacing=5;arcSize=7;perimeterSpacing=2;" vertex="1" parent="1">
          <mxGeometry x="910" y="870" width="150" height="60" as="geometry" />
        </mxCell>
        <mxCell id="IRvHJMBciiCPXwBHoD4_-1849" value="" style="endArrow=classic;startArrow=classic;html=1;rounded=0;exitX=1;exitY=0.5;exitDx=0;exitDy=0;entryX=0;entryY=0.5;entryDx=0;entryDy=0;" edge="1" parent="1" source="IRvHJMBciiCPXwBHoD4_-1830" target="IRvHJMBciiCPXwBHoD4_-1848">
          <mxGeometry width="50" height="50" relative="1" as="geometry">
            <mxPoint x="930" y="1030" as="sourcePoint" />
            <mxPoint x="980" y="980" as="targetPoint" />
          </mxGeometry>
        </mxCell>
        <mxCell id="IRvHJMBciiCPXwBHoD4_-1850" value="" style="endArrow=classic;startArrow=classic;html=1;rounded=0;entryX=0.25;entryY=1;entryDx=0;entryDy=0;" edge="1" parent="1" source="IRvHJMBciiCPXwBHoD4_-1848" target="IRvHJMBciiCPXwBHoD4_-1843">
          <mxGeometry width="50" height="50" relative="1" as="geometry">
            <mxPoint x="1090" y="930" as="sourcePoint" />
            <mxPoint x="1140" y="880" as="targetPoint" />
          </mxGeometry>
        </mxCell>
        <mxCell id="IRvHJMBciiCPXwBHoD4_-1857" value="" style="edgeStyle=orthogonalEdgeStyle;rounded=0;orthogonalLoop=1;jettySize=auto;html=1;" edge="1" parent="1" source="IRvHJMBciiCPXwBHoD4_-1852" target="IRvHJMBciiCPXwBHoD4_-1848">
          <mxGeometry relative="1" as="geometry" />
        </mxCell>
        <mxCell id="IRvHJMBciiCPXwBHoD4_-1852" value="DetailStoricoTecnico" style="rounded=1;whiteSpace=wrap;html=1;shadow=0;labelBackgroundColor=none;strokeColor=none;strokeWidth=3;fillColor=#64bbe2;fontFamily=Helvetica;fontSize=14;fontColor=#FFFFFF;align=center;spacing=5;arcSize=7;perimeterSpacing=2;" vertex="1" parent="1">
          <mxGeometry x="910" y="960" width="150" height="60" as="geometry" />
        </mxCell>
        <mxCell id="IRvHJMBciiCPXwBHoD4_-1855" value="" style="endArrow=classic;html=1;rounded=0;entryX=0.809;entryY=0.936;entryDx=0;entryDy=0;entryPerimeter=0;" edge="1" parent="1" target="1760">
          <mxGeometry width="50" height="50" relative="1" as="geometry">
            <mxPoint x="980" y="1016" as="sourcePoint" />
            <mxPoint x="1020" y="1050" as="targetPoint" />
            <Array as="points">
              <mxPoint x="980" y="1080" />
              <mxPoint x="630" y="1080" />
            </Array>
          </mxGeometry>
        </mxCell>
        <mxCell id="IRvHJMBciiCPXwBHoD4_-1856" value="" style="endArrow=classic;html=1;rounded=0;exitX=0.006;exitY=0.371;exitDx=0;exitDy=0;exitPerimeter=0;entryX=0.04;entryY=0.88;entryDx=0;entryDy=0;entryPerimeter=0;" edge="1" parent="1" source="IRvHJMBciiCPXwBHoD4_-1852" target="IRvHJMBciiCPXwBHoD4_-1840">
          <mxGeometry width="50" height="50" relative="1" as="geometry">
            <mxPoint x="1060" y="990" as="sourcePoint" />
            <mxPoint x="1110" y="940" as="targetPoint" />
            <Array as="points">
              <mxPoint x="894" y="983" />
            </Array>
          </mxGeometry>
        </mxCell>
        <mxCell id="IRvHJMBciiCPXwBHoD4_-1858" value="" style="endArrow=classic;startArrow=classic;html=1;rounded=0;exitX=1;exitY=0.75;exitDx=0;exitDy=0;entryX=0;entryY=0.75;entryDx=0;entryDy=0;" edge="1" parent="1" source="IRvHJMBciiCPXwBHoD4_-1832" target="IRvHJMBciiCPXwBHoD4_-1852">
          <mxGeometry width="50" height="50" relative="1" as="geometry">
            <mxPoint x="860" y="1050" as="sourcePoint" />
            <mxPoint x="910" y="1000" as="targetPoint" />
          </mxGeometry>
        </mxCell>
      </root>
    </mxGraphModel>
  </diagram>
</mxfile>
